<svg data-v-423bf9ae="" xmlns="http://www.w3.org/2000/svg" viewBox="0 0 591 90" class="iconLeft"><!----><!----><!----><g data-v-423bf9ae="" id="ec6af702-0958-44d8-a7be-e276a8df66c2" fill="black" transform="matrix(6.430868148803711,0,0,6.430868148803711,131.68162536621094,6.382636070251465)"><path d="M3.46 6.76L3.46 10.50L0.84 10.50L0.84 1.34L7.48 1.34L7.17 3.21L3.46 3.21L3.46 4.90L7.17 4.90L7.17 6.76L3.46 6.76ZM13.87 3.04L13.75 5.22L13.75 5.22Q12.94 5.04 12.43 5.24L12.43 5.24L12.43 5.24Q11.93 5.43 11.64 5.81L11.64 5.81L11.64 5.81Q11.35 6.19 11.25 6.64L11.25 6.64L11.25 6.64Q11.14 7.10 11.14 7.41L11.14 7.41L11.14 10.50L8.65 10.50L8.65 3.22L10.57 3.22L10.95 4.55L10.95 4.55Q10.95 4.55 11.07 4.31L11.07 4.31L11.07 4.31Q11.20 4.07 11.54 3.79L11.54 3.79L11.54 3.79Q11.87 3.51 12.44 3.28L12.44 3.28L12.44 3.28Q13.01 3.04 13.87 3.04L13.87 3.04ZM18.62 3.04L18.62 3.04L18.62 3.04Q19.25 3.04 20.01 3.21L20.01 3.21L20.01 3.21Q20.76 3.39 21.41 3.83L21.41 3.83L21.41 3.83Q22.06 4.27 22.50 5.01L22.50 5.01L22.50 5.01Q22.93 5.75 22.93 6.89L22.93 6.89L22.93 6.89Q22.93 8.02 22.50 8.75L22.50 8.75L22.50 8.75Q22.06 9.48 21.41 9.90L21.41 9.90L21.41 9.90Q20.76 10.32 20.01 10.49L20.01 10.49L20.01 10.49Q19.25 10.65 18.62 10.65L18.62 10.65L18.62 10.65Q17.99 10.65 17.25 10.49L17.25 10.49L17.25 10.49Q16.51 10.32 15.87 9.90L15.87 9.90L15.87 9.90Q15.23 9.48 14.80 8.75L14.80 8.75L14.80 8.75Q14.36 8.02 14.36 6.89L14.36 6.89L14.36 6.89Q14.36 6.13 14.57 5.56L14.57 5.56L14.57 5.56Q14.77 4.98 15.10 4.56L15.10 4.56L15.10 4.56Q15.43 4.13 15.87 3.84L15.87 3.84L15.87 3.84Q16.31 3.54 16.78 3.37L16.78 3.37L16.78 3.37Q17.25 3.19 17.72 3.12L17.72 3.12L17.72 3.12Q18.20 3.04 18.62 3.04ZM18.62 8.90L18.62 8.90L18.62 8.90Q19.39 8.90 19.84 8.46L19.84 8.46L19.84 8.46Q20.29 8.01 20.29 6.89L20.29 6.89L20.29 6.89Q20.29 5.75 19.84 5.27L19.84 5.27L19.84 5.27Q19.40 4.79 18.62 4.79L18.62 4.79L18.62 4.79Q17.84 4.79 17.42 5.27L17.42 5.27L17.42 5.27Q17.01 5.75 17.01 6.89L17.01 6.89L17.01 6.89Q17.01 8.01 17.42 8.46L17.42 8.46L17.42 8.46Q17.84 8.90 18.62 8.90ZM27.08 3.02L27.08 3.02L27.08 3.02Q27.75 3.02 28.44 3.21L28.44 3.21L28.44 3.21Q29.13 3.39 29.81 3.81L29.81 3.81L28.95 5.21L28.95 5.21Q28.84 5.14 28.60 5.03L28.60 5.03L28.60 5.03Q28.36 4.93 28.08 4.84L28.08 4.84L28.08 4.84Q27.79 4.75 27.48 4.69L27.48 4.69L27.48 4.69Q27.16 4.63 26.91 4.66L26.91 4.66L26.91 4.66Q26.66 4.69 26.50 4.82L26.50 4.82L26.50 4.82Q26.33 4.94 26.33 5.22L26.33 5.22L26.33 5.22Q26.33 5.43 26.66 5.57L26.66 5.57L26.66 5.57Q26.99 5.71 27.41 5.85L27.41 5.85L27.41 5.85Q27.83 5.98 28.28 6.16L28.28 6.16L28.28 6.16Q28.73 6.34 29.10 6.62L29.10 6.62L29.10 6.62Q29.47 6.90 29.71 7.31L29.71 7.31L29.71 7.31Q29.95 7.73 29.95 8.33L29.95 8.33L29.95 8.33Q29.95 8.95 29.70 9.39L29.70 9.39L29.70 9.39Q29.46 9.83 29.05 10.11L29.05 10.11L29.05 10.11Q28.64 10.39 28.10 10.53L28.10 10.53L28.10 10.53Q27.55 10.67 26.96 10.67L26.96 10.67L26.96 10.67Q26.15 10.67 25.30 10.44L25.30 10.44L25.30 10.44Q24.44 10.22 23.77 9.65L23.77 9.65L24.64 8.16L24.64 8.16Q24.79 8.33 25.07 8.48L25.07 8.48L25.07 8.48Q25.34 8.64 25.66 8.75L25.66 8.75L25.66 8.75Q25.97 8.86 26.31 8.92L26.31 8.92L26.31 8.92Q26.64 8.97 26.91 8.95L26.91 8.95L26.91 8.95Q27.17 8.92 27.35 8.81L27.35 8.81L27.35 8.81Q27.52 8.69 27.52 8.46L27.52 8.46L27.52 8.46Q27.52 8.13 27.27 7.94L27.27 7.94L27.27 7.94Q27.02 7.74 26.64 7.59L26.64 7.59L26.64 7.59Q26.26 7.45 25.82 7.31L25.82 7.31L25.82 7.31Q25.37 7.17 24.99 6.93L24.99 6.93L24.99 6.93Q24.61 6.69 24.36 6.31L24.36 6.31L24.36 6.31Q24.11 5.94 24.11 5.33L24.11 5.33L24.11 5.33Q24.11 4.73 24.36 4.30L24.36 4.30L24.36 4.30Q24.61 3.86 25.03 3.58L25.03 3.58L25.03 3.58Q25.45 3.29 25.98 3.16L25.98 3.16L25.98 3.16Q26.52 3.02 27.08 3.02ZM35.80 3.04L35.80 3.04L35.80 3.04Q36.36 3.04 36.91 3.15L36.91 3.15L36.91 3.15Q37.46 3.26 37.91 3.61L37.91 3.61L37.91 3.61Q38.35 3.96 38.63 4.61L38.63 4.61L38.63 4.61Q38.91 5.26 38.91 6.33L38.91 6.33L38.91 10.50L36.57 10.50L36.57 7.17L36.57 7.17Q36.57 6.13 36.23 5.59L36.23 5.59L36.23 5.59Q35.90 5.05 35.27 5.05L35.27 5.05L35.27 5.05Q34.82 5.05 34.51 5.25L34.51 5.25L34.51 5.25Q34.20 5.45 34.01 5.80L34.01 5.80L34.01 5.80Q33.82 6.15 33.74 6.62L33.74 6.62L33.74 6.62Q33.66 7.08 33.66 7.64L33.66 7.64L33.66 10.50L31.15 10.50L31.15 1.55L33.45 1.55L33.45 4.56L33.45 4.56Q33.45 4.56 33.57 4.33L33.57 4.33L33.57 4.33Q33.70 4.09 33.98 3.80L33.98 3.80L33.98 3.80Q34.26 3.51 34.71 3.28L34.71 3.28L34.71 3.28Q35.15 3.04 35.80 3.04ZM46.72 8.57L46.72 10.50L40.59 10.50L40.59 1.34L43.22 1.34L43.22 8.57L46.72 8.57ZM54.70 5.77L54.70 10.50L52.70 10.50L52.44 9.39L52.44 9.39Q52.00 10.05 51.45 10.35L51.45 10.35L51.45 10.35Q50.90 10.65 50.13 10.65L50.13 10.65L50.13 10.65Q49.59 10.65 49.09 10.52L49.09 10.52L49.09 10.52Q48.59 10.39 48.22 10.13L48.22 10.13L48.22 10.13Q47.84 9.87 47.61 9.48L47.61 9.48L47.61 9.48Q47.39 9.09 47.39 8.57L47.39 8.57L47.39 8.57Q47.38 7.87 47.59 7.39L47.59 7.39L47.59 7.39Q47.81 6.92 48.20 6.61L48.20 6.61L48.20 6.61Q48.58 6.30 49.08 6.13L49.08 6.13L49.08 6.13Q49.59 5.96 50.14 5.90L50.14 5.90L50.14 5.90Q50.69 5.84 51.26 5.84L51.26 5.84L51.26 5.84Q51.83 5.85 52.33 5.88L52.33 5.88L52.33 5.84L52.33 5.84Q52.33 5.29 52.05 5.03L52.05 5.03L52.05 5.03Q51.76 4.77 51.33 4.70L51.33 4.70L51.33 4.70Q50.90 4.63 50.39 4.71L50.39 4.71L50.39 4.71Q49.88 4.79 49.43 4.91L49.43 4.91L49.43 4.91Q48.99 5.04 48.66 5.17L48.66 5.17L48.66 5.17Q48.34 5.29 48.30 5.32L48.30 5.32L48.30 3.58L48.30 3.58Q48.31 3.57 48.57 3.49L48.57 3.49L48.57 3.49Q48.83 3.40 49.22 3.30L49.22 3.30L49.22 3.30Q49.62 3.21 50.09 3.12L50.09 3.12L50.09 3.12Q50.57 3.04 51.03 3.04L51.03 3.04L51.03 3.04Q51.49 3.04 52.12 3.15L52.12 3.15L52.12 3.15Q52.75 3.26 53.33 3.56L53.33 3.56L53.33 3.56Q53.90 3.86 54.30 4.40L54.30 4.40L54.30 4.40Q54.70 4.93 54.70 5.77L54.70 5.77ZM52.32 7.52L52.32 7.25L52.32 7.25Q51.86 7.25 51.40 7.26L51.40 7.26L51.40 7.26Q50.95 7.27 50.58 7.34L50.58 7.34L50.58 7.34Q50.20 7.42 49.98 7.61L49.98 7.61L49.98 7.61Q49.76 7.80 49.76 8.16L49.76 8.16L49.76 8.16Q49.76 8.55 49.99 8.77L49.99 8.77L49.99 8.77Q50.23 8.99 50.53 8.99L50.53 8.99L50.53 8.99Q50.92 8.99 51.25 8.88L51.25 8.88L51.25 8.88Q51.58 8.76 51.81 8.56L51.81 8.56L51.81 8.56Q52.05 8.36 52.19 8.09L52.19 8.09L52.19 8.09Q52.32 7.83 52.32 7.52L52.32 7.52ZM60.94 3.04L60.94 3.04L60.94 3.04Q61.77 3.04 62.39 3.36L62.39 3.36L62.39 3.36Q63.01 3.68 63.43 4.23L63.43 4.23L63.43 4.23Q63.85 4.77 64.07 5.47L64.07 5.47L64.07 5.47Q64.29 6.17 64.29 6.93L64.29 6.93L64.29 6.93Q64.29 7.69 64.07 8.37L64.07 8.37L64.07 8.37Q63.85 9.04 63.43 9.55L63.43 9.55L63.43 9.55Q63.01 10.05 62.39 10.35L62.39 10.35L62.39 10.35Q61.77 10.65 60.94 10.65L60.94 10.65L60.94 10.65Q60.34 10.65 59.90 10.48L59.90 10.48L59.90 10.48Q59.46 10.30 59.16 10.09L59.16 10.09L59.16 10.09Q58.81 9.84 58.56 9.53L58.56 9.53L58.20 10.50L56.10 10.50L56.10 1.55L58.62 1.55L58.62 4.21L58.62 4.21Q58.87 3.88 59.23 3.63L59.23 3.63L59.23 3.63Q59.54 3.40 59.97 3.22L59.97 3.22L59.97 3.22Q60.40 3.04 60.94 3.04ZM60.14 8.75L60.14 8.75L60.14 8.75Q60.40 8.75 60.66 8.67L60.66 8.67L60.66 8.67Q60.93 8.60 61.15 8.39L61.15 8.39L61.15 8.39Q61.36 8.19 61.50 7.83L61.50 7.83L61.50 7.83Q61.64 7.46 61.64 6.89L61.64 6.89L61.64 6.89Q61.64 6.31 61.50 5.94L61.50 5.94L61.50 5.94Q61.36 5.57 61.15 5.35L61.15 5.35L61.15 5.35Q60.93 5.14 60.66 5.05L60.66 5.05L60.66 5.05Q60.40 4.97 60.14 4.97L60.14 4.97L60.14 4.97Q59.89 4.97 59.62 5.05L59.62 5.05L59.62 5.05Q59.35 5.14 59.12 5.35L59.12 5.35L59.12 5.35Q58.90 5.57 58.76 5.94L58.76 5.94L58.76 5.94Q58.62 6.31 58.62 6.89L58.62 6.89L58.62 6.89Q58.62 7.46 58.76 7.83L58.76 7.83L58.76 7.83Q58.90 8.19 59.12 8.39L59.12 8.39L59.12 8.39Q59.35 8.60 59.62 8.67L59.62 8.67L59.62 8.67Q59.89 8.75 60.14 8.75ZM68.43 3.02L68.43 3.02L68.43 3.02Q69.10 3.02 69.80 3.21L69.80 3.21L69.80 3.21Q70.49 3.39 71.16 3.81L71.16 3.81L70.31 5.21L70.31 5.21Q70.20 5.14 69.96 5.03L69.96 5.03L69.96 5.03Q69.72 4.93 69.43 4.84L69.43 4.84L69.43 4.84Q69.15 4.75 68.83 4.69L68.83 4.69L68.83 4.69Q68.52 4.63 68.26 4.66L68.26 4.66L68.26 4.66Q68.01 4.69 67.85 4.82L67.85 4.82L67.85 4.82Q67.69 4.94 67.69 5.22L67.69 5.22L67.69 5.22Q67.69 5.43 68.02 5.57L68.02 5.57L68.02 5.57Q68.35 5.71 68.77 5.85L68.77 5.85L68.77 5.85Q69.19 5.98 69.64 6.16L69.64 6.16L69.64 6.16Q70.08 6.34 70.45 6.62L70.45 6.62L70.45 6.62Q70.83 6.90 71.06 7.31L71.06 7.31L71.06 7.31Q71.30 7.73 71.30 8.33L71.30 8.33L71.30 8.33Q71.30 8.95 71.06 9.39L71.06 9.39L71.06 9.39Q70.81 9.83 70.41 10.11L70.41 10.11L70.41 10.11Q70 10.39 69.45 10.53L69.45 10.53L69.45 10.53Q68.91 10.67 68.32 10.67L68.32 10.67L68.32 10.67Q67.51 10.67 66.65 10.44L66.65 10.44L66.65 10.44Q65.80 10.22 65.13 9.65L65.13 9.65L66.00 8.16L66.00 8.16Q66.15 8.33 66.42 8.48L66.42 8.48L66.42 8.48Q66.70 8.64 67.01 8.75L67.01 8.75L67.01 8.75Q67.33 8.86 67.66 8.92L67.66 8.92L67.66 8.92Q68.00 8.97 68.26 8.95L68.26 8.95L68.26 8.95Q68.53 8.92 68.70 8.81L68.70 8.81L68.70 8.81Q68.88 8.69 68.88 8.46L68.88 8.46L68.88 8.46Q68.88 8.13 68.63 7.94L68.63 7.94L68.63 7.94Q68.38 7.74 68.00 7.59L68.00 7.59L68.00 7.59Q67.62 7.45 67.17 7.31L67.17 7.31L67.17 7.31Q66.72 7.17 66.35 6.93L66.35 6.93L66.35 6.93Q65.97 6.69 65.72 6.31L65.72 6.31L65.72 6.31Q65.46 5.94 65.46 5.33L65.46 5.33L65.46 5.33Q65.46 4.73 65.72 4.30L65.72 4.30L65.72 4.30Q65.97 3.86 66.39 3.58L66.39 3.58L66.39 3.58Q66.81 3.29 67.34 3.16L67.34 3.16L67.34 3.16Q67.87 3.02 68.43 3.02Z"></path></g><!----><g data-v-423bf9ae="" id="f8c751ac-b88b-4c37-be5b-271e2f3de10b" transform="matrix(1.1939259767532349,0,0,1.1939259767532349,-0.7229008078575134,-8.41283893585205)" stroke="none" fill="black"><path d="M25.45 35.378a9.036 9.036 0 0 0-7.559 4.081c.312-.162.66-.262 1.035-.262a2.266 2.266 0 0 1 0 4.53 2.258 2.258 0 0 1-2.189-1.715 9.047 9.047 0 0 0-.336 2.416 9.05 9.05 0 1 0 9.049-9.05zM83.196 42.012a2.26 2.26 0 0 1-4.453-.551 2.266 2.266 0 0 1 2.265-2.265c.375 0 .723.1 1.033.261a9.036 9.036 0 0 0-7.558-4.08 9.05 9.05 0 1 0 9.049 9.049c0-.837-.123-1.644-.336-2.414zM83.196 42.012c.045-.177.075-.359.075-.55"></path><path d="M49.967 82.666c-5.319 0-8.09-5.439-13.048-5.22C12.197 78.545.934 65.38.934 47.642c0-13.047 12.636-22.937 12.636-22.937S3.956 11.52 9.449 7.674c3.685-2.524 16.402 8.09 22.8 8.516 8.404.558 10.902-1.373 17.718-1.373M24.9 32.34c-6.978 0-12.635 5.657-12.635 12.636 0 6.979 5.657 12.635 12.635 12.635 6.979 0 12.637-5.656 12.637-12.635-10.17-10.667-6.524-7.085-12.637-12.636zm25.067-17.524c6.816 0 9.314 1.931 17.718 1.373 6.398-.426 19.114-11.04 22.801-8.516 5.494 3.846-4.121 17.031-4.121 17.031S99 34.594 99 47.642c0 17.738-11.262 30.903-35.984 29.805-4.959-.22-7.73 5.22-13.049 5.22m12.429-37.691c0 6.979 5.657 12.635 12.637 12.635 6.979 0 12.635-5.656 12.635-12.635S82.012 32.34 75.033 32.34c-6.112 5.551-2.467 1.969-12.637 12.636zm-6.203 3.994c-2.892 2.891-3.939 3.988-6.227 3.988-2.287 0-3.335-1.097-6.227-3.988-.96-.96-1.919 6.608-.229 10.894.468 1.19 6.455 8.699 6.455 8.699s5.986-7.509 6.456-8.699c1.691-4.286.733-11.854-.228-10.894z"></path></g><!----></svg>